<?xml version="1.0" standalone="no"?>
<!DOCTYPE svg PUBLIC "-//W3C//DTD SVG 20010904//EN"
 "http://www.w3.org/TR/2001/REC-SVG-20010904/DTD/svg10.dtd">
<svg version="1.0" xmlns="http://www.w3.org/2000/svg"
 width="512.000000pt" height="512.000000pt" viewBox="0 0 512.000000 512.000000"
 preserveAspectRatio="xMidYMid meet">
<metadata>
Created by potrace 1.14, written by Peter Selinger 2001-2017
</metadata>
<g transform="translate(0.000000,512.000000) scale(0.100000,-0.100000)"
fill="#000000" stroke="none">
<path d="M253 5106 c-102 -32 -176 -97 -222 -196 l-26 -55 0 -2295 0 -2295 26
-56 c37 -79 90 -133 167 -171 l67 -33 2295 0 2295 0 67 33 c77 38 130 92 167
171 l26 56 0 2295 0 2295 -33 67 c-38 77 -92 130 -171 167 l-56 26 -2280 2
c-1866 1 -2288 -1 -2322 -11z m3381 -850 c82 -23 166 -58 234 -97 86 -51 248
-218 299 -309 154 -274 150 -606 -8 -873 -88 -149 -271 -302 -429 -360 -325
-121 -697 -37 -931 209 -99 106 -161 213 -206 361 -23 77 -26 106 -27 228 0
162 14 232 75 363 116 251 342 432 608 488 86 18 304 12 385 -10z m-2262 -323
l328 -328 328 328 c213 213 334 327 347 327 26 0 165 -139 165 -165 0 -12
-123 -142 -327 -347 l-328 -328 328 -328 c199 -199 327 -335 327 -347 0 -24
-141 -165 -165 -165 -12 0 -148 128 -347 327 l-328 328 -328 -328 c-210 -210
-335 -327 -348 -327 -26 0 -164 139 -164 165 0 13 119 139 327 347 l328 328
-328 328 c-208 208 -327 334 -327 347 0 26 138 165 165 165 13 0 134 -114 347
-327z m563 -1408 c288 -84 503 -299 591 -590 24 -79 27 -107 28 -230 0 -105
-4 -157 -18 -208 -45 -170 -109 -282 -230 -403 -171 -171 -368 -254 -606 -254
-377 0 -693 228 -817 591 -81 236 -46 519 89 726 136 208 333 342 573 389 107
21 279 12 390 -21z m1157 -312 l328 -328 328 328 c210 210 335 327 348 327 26
0 164 -139 164 -165 0 -13 -119 -139 -327 -347 l-328 -328 328 -328 c249 -249
327 -333 327 -351 0 -34 -127 -161 -161 -161 -18 0 -102 78 -351 327 l-328
328 -328 -328 c-219 -219 -334 -327 -348 -327 -26 0 -164 140 -164 166 0 11
137 156 327 346 l328 328 -328 328 c-199 199 -327 335 -327 347 0 24 141 165
165 165 12 0 148 -128 347 -327z"/>
<path d="M3287 3985 c-253 -64 -447 -309 -447 -565 0 -264 202 -510 465 -565
90 -19 138 -19 233 1 448 91 616 641 296 969 -57 59 -150 118 -227 145 -82 28
-239 36 -320 15z"/>
<path d="M1581 2264 c-217 -46 -395 -221 -446 -435 -69 -295 98 -585 395 -685
82 -28 252 -26 345 3 193 61 347 234 390 438 18 88 18 142 0 230 -47 223 -227
403 -450 450 -86 18 -150 18 -234 -1z"/>
</g>
</svg>
